<svg width="268" height="24" viewBox="0 0 268 24" fill="none" xmlns="http://www.w3.org/2000/svg">
<path d="M0 11.1089V6.91924H32.5501V13.3648L24.4932 12.5591V11.1089H12.0854V19.8104H24.4932V18.3601L32.5501 17.5544V24H4.02848V11.1089H0ZM38.0238 24V1.44051H46.0808V6.27469L66.8677 8.85291V24H58.8108V11.9146L46.0808 10.3032V24H38.0238ZM69.7745 11.1089V6.91924H79.5718L81.2154 8.53064L82.8268 6.91924H99.1019V14.0094L91.0449 13.2037V11.1089H81.86V24H73.803V11.1089H69.7745ZM102.983 24V6.91924H132.149V24H102.983ZM111.04 19.8104H124.092V11.1089H111.04V19.8104ZM137.949 24V6.91924H143.718L145.361 8.53064L146.973 6.91924H158.897L166.793 10.7866V24H158.736V12.0757L156.802 11.1089H146.006V24H137.949ZM169.385 11.1089V6.91924H181.47V24H173.413V11.1089H169.385ZM173.413 4.66329V0.151398H181.47V4.66329H173.413ZM184.366 11.1089V6.91924H216.916V13.3648L208.859 12.5591V11.1089H196.451V19.8104H208.859V18.3601L216.916 17.5544V24H188.394V11.1089H184.366ZM222.39 24V1.44051H230.447V19.8104H234.475V24H222.39ZM234.47 11.1089V6.91924H267.02V15.4596L246.556 18.3601V19.8104H258.963V18.3601L267.02 17.5544V24H238.499V11.1089H234.47ZM246.556 14.2027L258.963 12.5591V11.1089H246.556V14.2027Z" fill="#69D467"/>
</svg>
