<svg width="42" height="40" viewBox="0 0 42 40" fill="none" xmlns="http://www.w3.org/2000/svg">
<path d="M18.1468 2.78115C19.0449 0.0172162 22.9551 0.0172191 23.8532 2.78115L26.6129 11.2746C27.0145 12.5106 28.1663 13.3475 29.466 13.3475H38.3965C41.3027 13.3475 42.511 17.0664 40.1599 18.7746L32.935 24.0238C31.8835 24.7877 31.4435 26.1418 31.8451 27.3779L34.6048 35.8713C35.5029 38.6353 32.3394 40.9336 29.9883 39.2254L22.7634 33.9762C21.7119 33.2123 20.2881 33.2123 19.2366 33.9762L12.0117 39.2254C9.66056 40.9336 6.49713 38.6353 7.39518 35.8713L10.1549 27.3779C10.5565 26.1418 10.1165 24.7877 9.06505 24.0238L1.84011 18.7746C-0.511033 17.0664 0.697296 13.3475 3.60347 13.3475H12.534C13.8337 13.3475 14.9855 12.5106 15.3871 11.2746L18.1468 2.78115Z" fill="#DBFC54"/>
</svg>
