<svg width="73" height="30" viewBox="0 0 73 30" fill="none" xmlns="http://www.w3.org/2000/svg">
<path d="M2 13.0001C0.89543 13.0001 0 13.8956 0 15.0001C0 16.1047 0.89543 17.0001 2 17.0001V13.0001ZM72.4142 16.4143C73.1953 15.6333 73.1953 14.367 72.4142 13.5859L59.6863 0.857986C58.9052 0.0769377 57.6389 0.0769377 56.8579 0.857986C56.0768 1.63904 56.0768 2.90536 56.8579 3.68641L68.1716 15.0001L56.8579 26.3138C56.0768 27.0949 56.0768 28.3612 56.8579 29.1423C57.6389 29.9233 58.9052 29.9233 59.6863 29.1423L72.4142 16.4143ZM2 17.0001H71V13.0001H2V17.0001Z" fill="white"/>
</svg>
